<svg preserveAspectRatio="none" overflow="visible" style="display: block;" width="187.763" height="44.1469" viewBox="0 0 187.763 44.1469" fill="none" xmlns="http://www.w3.org/2000/svg">
<g id="Group">
<path id="Vector" fill-rule="evenodd" clip-rule="evenodd" d="M49.1797 31.8722V13.9453H63.6278V31.8722H60.0986V17.3719H52.7079V31.8722H49.1797ZM73.951 21.5419H71.9482C70.2794 21.5419 69.4446 22.1419 69.4446 23.3156C69.4446 24.4659 70.2562 25.0406 71.8774 25.0406C72.5931 25.0406 73.2837 24.9937 73.951 24.8737V21.5419ZM77.2177 18.81V31.8712H73.951V27.3394C73.3181 27.4556 72.648 27.6084 71.8383 27.6319L69.1347 31.8712H65.4631L68.6926 27.1706C66.9987 26.4516 66.1071 25.2094 66.1071 23.2678C66.1071 20.6072 68.0374 18.81 71.8532 18.81H77.2177ZM99.2956 19.9125C100.296 20.895 100.797 22.2375 100.797 23.9869V31.8712H97.4361V24.6094C97.4361 22.6209 96.3872 21.5662 94.8367 21.5662C93.1428 21.5662 91.9757 22.7888 91.9757 24.7059V31.8722H88.6141V24.6347C88.6141 22.6931 87.5885 21.5662 85.9914 21.5662C84.3468 21.5662 83.1546 22.7887 83.1546 24.7303V31.8722H79.793V18.81H83.083V20.6794C83.8219 19.3134 85.3473 18.4275 87.0403 18.4509C88.6615 18.4509 90.1637 19.2422 90.8552 20.7516C91.8092 19.3134 93.5728 18.4509 95.504 18.4509C97.0545 18.4509 98.3175 18.9281 99.2956 19.9125ZM127.12 28.0125C127.787 27.2934 128.121 26.4075 128.121 25.3538C128.121 24.2981 127.787 23.4122 127.12 22.6922C126.452 21.9741 125.593 21.6141 124.521 21.6141C123.472 21.6141 122.613 21.9741 121.947 22.6922C121.279 23.4122 120.945 24.2981 120.945 25.3538C120.945 26.4075 121.28 27.2944 121.947 28.0134C122.614 28.7325 123.472 29.0916 124.521 29.0916C125.593 29.0916 126.452 28.7325 127.12 28.0134M129.695 20.4637C130.91 21.7819 131.507 23.4122 131.507 25.3294C131.507 27.2466 130.887 28.8759 129.671 30.195C128.455 31.5122 126.93 32.1825 125.093 32.1825C123.496 32.1825 122.022 31.4813 121.016 30.24V37.2403H117.654V18.81H120.992V20.5238C122.059 19.185 123.472 18.4753 125.117 18.4753C126.953 18.4753 128.478 19.1456 129.695 20.4637ZM139.685 29.0681C140.71 29.0681 141.544 28.7081 142.235 27.9891C142.927 27.2466 143.285 26.3597 143.285 25.3294C143.285 24.2981 142.927 23.4122 142.236 22.6931C141.544 21.9741 140.71 21.615 139.685 21.615C138.659 21.615 137.801 21.9741 137.11 22.6931C136.419 23.4122 136.085 24.2991 136.085 25.3294C136.085 26.3597 136.419 27.2466 137.11 27.9891C137.801 28.7081 138.659 29.0672 139.685 29.0672M134.678 20.4637C135.99 19.1212 137.659 18.4509 139.685 18.4509C141.711 18.4509 143.38 19.1212 144.692 20.4637C146.002 21.7819 146.647 23.4122 146.647 25.3294C146.647 27.27 146.002 28.9003 144.692 30.2184C143.38 31.5356 141.711 32.2078 139.685 32.2078C137.659 32.2078 135.99 31.5356 134.678 30.2184C133.366 28.9003 132.723 27.2709 132.723 25.3294C132.723 23.4122 133.366 21.7819 134.678 20.4637ZM156.112 18.81H159.474V31.8722H156.112V27.4753C155.128 28.0406 154.062 28.3247 153.227 28.3247C151.678 28.3247 150.533 28.0369 149.507 27.3422C148.484 26.5997 147.911 25.2094 147.911 23.1956V18.81H151.249V22.9566C151.249 24.4903 152.035 25.2572 153.609 25.2572C154.491 25.2572 155.243 25.1334 156.113 24.7838V18.81H156.112ZM170.585 31.8722L165.411 25.8403V31.8722H162.049V18.7903H165.411V23.9728L170.132 18.81H174.376L168.582 24.8597L174.71 31.8722H170.585Z" fill="#EB2316"/>
<path id="Vector_2" fill-rule="evenodd" clip-rule="evenodd" d="M183.567 22.6688C182.876 21.9253 182.017 21.5662 180.968 21.5662C179.896 21.5662 179.037 21.9253 178.345 22.6688C177.678 23.4122 177.344 24.2981 177.344 25.3284C177.344 26.3831 177.678 27.27 178.369 28.0134C179.061 28.7559 179.919 29.115 180.968 29.115C182.017 29.115 182.876 28.7559 183.567 28.0134C184.258 27.27 184.616 26.3831 184.616 25.3284C184.616 24.2981 184.258 23.4122 183.567 22.6688ZM184.569 18.81H187.763V31.8712H184.569V30.1462C183.452 31.5075 182.065 32.1834 180.42 32.1834C178.56 32.1834 177.01 31.5366 175.794 30.2184C174.578 28.9003 173.983 27.2466 173.983 25.2816C173.983 23.3156 174.603 21.6863 175.818 20.4159C177.035 19.1222 178.584 18.4753 180.42 18.4753C182.041 18.4753 183.471 19.2159 184.569 20.5228V18.81ZM110.096 15.5269C110.096 14.4009 110.979 13.5619 112.122 13.5619C113.243 13.5619 114.102 14.4488 114.102 15.5269C114.102 16.7016 113.243 17.5641 112.122 17.5641C110.979 17.5641 110.096 16.7016 110.096 15.5269ZM105.948 24.0112H112.552C112.243 22.3087 111.026 21.2794 109.31 21.2794C107.616 21.2794 106.353 22.3097 105.948 24.0112ZM106.925 13.5619C108.046 13.5619 108.928 14.4488 108.928 15.5269C108.928 16.7016 108.07 17.5641 106.925 17.5641C105.781 17.5641 104.923 16.7016 104.923 15.5269C104.923 14.4488 105.805 13.5619 106.925 13.5619ZM115.699 26.5275H105.948C106.425 28.3725 107.689 29.3072 109.739 29.3072C111.145 29.3072 112.712 28.7775 113.899 27.8306L115.252 29.9709C113.612 31.515 111.742 32.1591 109.596 32.1591C107.306 32.1591 105.566 31.4887 104.35 30.1706C103.135 28.8525 102.538 27.2222 102.538 25.3294C102.538 23.34 103.158 21.7106 104.422 20.4169C105.686 19.1222 107.307 18.4744 109.31 18.4744C111.194 18.4744 112.766 19.0734 113.982 20.2481C115.198 21.4228 115.818 23.0044 115.818 25.0406C115.818 25.4962 115.772 26.0006 115.699 26.5275Z" fill="#EB2316"/>
<path id="Vector_3" fill-rule="evenodd" clip-rule="evenodd" d="M21.9132 0C9.82998 0 0 9.90187 0 22.0734C0 34.245 9.82998 44.1469 21.9132 44.1469C33.9954 44.1469 43.8263 34.245 43.8263 22.0734C43.8263 9.90187 33.9954 0 21.9132 0Z" fill="white"/>
<path id="Vector_4" fill-rule="evenodd" clip-rule="evenodd" d="M32.9717 6.24094C31.2992 10.5619 27.4917 11.4609 21.9765 11.4609C21.3845 11.4609 20.7982 11.4516 20.2323 11.4431C19.6851 11.4356 19.1676 11.4272 18.6604 11.4272C18.2099 11.4272 17.7558 11.4328 17.3081 11.4525C18.0806 9.54187 19.3137 8.24344 21.069 7.45594C23.5158 6.35906 26.6969 6.34781 29.5039 6.33938C30.7268 6.33469 31.8976 6.33 32.9717 6.24094Z" fill="#008F32"/>
<path id="Vector_5" fill-rule="evenodd" clip-rule="evenodd" d="M34.6897 7.6275C32.2159 13.0556 26.7025 13.5994 21.9765 13.5994C20.9387 13.5994 19.9448 13.5741 19.0243 13.5684L17.8339 18.2578C23.93 13.2516 31.9916 18.2147 31.1298 25.7691C30.5491 30.8569 26.9482 34.1841 23.1389 35.1403C18.9889 36.1828 14.3913 34.6228 12.3298 30.3628C12.1111 29.9128 11.7305 29.0109 11.5853 28.5291L15.9614 27.3966C16.0386 27.6506 16.1699 27.8962 16.3076 28.1203C19.2374 32.88 25.1743 30.4997 25.8444 25.5619C26.5266 20.5387 19.5297 17.8631 16.3411 23.7337L12.4601 22.0678L12.3931 22.0378L14.2647 14.4694C14.3801 13.9312 14.7692 12.4284 14.8362 12.1819C16.9516 4.34625 23.795 4.2225 29.2843 4.20187C27.0143 3.25031 24.5256 2.72344 21.9132 2.72344C11.3033 2.72344 2.70366 11.3859 2.70366 22.0734C2.70366 32.7609 11.3033 41.4234 21.9132 41.4234C32.5231 41.4234 41.1227 32.7609 41.1227 22.0734C41.1227 16.3284 38.6359 11.1712 34.6897 7.6275Z" fill="#EB2316"/>
</g>
</svg>
