<svg preserveAspectRatio="none" overflow="visible" style="display: block;" width="28" height="28" viewBox="0 0 28 28" fill="none" xmlns="http://www.w3.org/2000/svg">
<g id="box-svgrepo-com 1" clip-path="url(#clip0_0_167)">
<path id="Vector" d="M27.0568 7.78837L24.6488 1.36675C24.4895 0.9485 24.0922 0.65625 23.6259 0.65625H4.375C3.90863 0.65625 3.5105 0.9485 3.353 1.35975L3.35037 1.36762L0.959 7.7665C0.777875 8.04475 0.665875 8.38425 0.65625 8.74825V8.75087V25.3759C0.658 26.4626 1.53825 27.3429 2.625 27.3446H25.375C26.4617 27.3429 27.342 26.4626 27.3438 25.3759V8.75087C27.335 8.39387 27.2291 8.06225 27.0515 7.78137L27.0559 7.78925L27.0568 7.78837ZM24.3434 6.78125H15.0938V2.84375H22.8664L24.3434 6.78125ZM5.13363 2.84375H12.9062V6.78125H3.66187L5.13363 2.84375ZM25.1562 25.1562H2.84375V8.96875H25.1562V25.1562Z" fill="#538429"/>
</g>
<defs>
<clipPath id="clip0_0_167">
<rect width="28" height="28" fill="white"/>
</clipPath>
</defs>
</svg>
