<svg preserveAspectRatio="none" overflow="visible" style="display: block;" width="98" height="21" viewBox="0 0 98 21" fill="none" xmlns="http://www.w3.org/2000/svg">
<g id="Ozon_logo_clear 4" clip-path="url(#clip0_0_4)">
<path id="Vector" d="M11.4145 15.9976C13.9484 15.6826 15.9953 13.6758 16.3186 11.1894C16.4314 10.3408 16.344 9.47813 16.0629 8.66792C15.7818 7.85771 15.3147 7.12164 14.6975 6.5165C14.0802 5.91136 13.3295 5.45333 12.5031 5.17775C11.6768 4.90217 10.7969 4.8164 9.93138 4.92708C7.3955 5.24406 5.34861 7.25094 5.02733 9.73528C4.91446 10.5839 5.00193 11.4466 5.283 12.2568C5.56408 13.067 6.03124 13.8031 6.64844 14.4082C7.26564 15.0134 8.01638 15.4714 8.84274 15.747C9.6691 16.0225 10.549 16.1083 11.4145 15.9976ZM11.76 0.0534906C14.1995 0.305282 16.4769 1.37055 18.2114 3.07117C19.946 4.77179 21.0325 7.00468 21.2893 9.39651C21.9581 16.0135 16.3327 21.529 9.58181 20.8732C7.14267 20.621 4.86575 19.5555 3.13164 17.855C1.39752 16.1544 0.31132 13.9217 0.0545923 11.5302C-0.614232 4.91321 5.01117 -0.602264 11.76 0.0534906ZM27.0157 0.467547H42.6371C43.2312 0.467547 43.5666 1.13321 43.2089 1.59679L32.4007 15.5776H40.8691C42.4128 15.5776 43.6272 16.9545 43.308 18.5236C43.0736 19.6746 41.9723 20.4591 40.7761 20.4591H23.811C23.223 20.4591 22.8896 19.7994 23.2432 19.3418L34.0596 5.34906H27.1087C25.9124 5.34906 24.8112 4.56255 24.5768 3.41349C24.2555 1.84443 25.472 0.467547 27.0157 0.467547ZM94.8095 0.523019C96.4219 0.190189 97.8404 1.38679 97.8404 2.9083V19.7539C97.8404 20.3423 97.1473 20.6692 96.6786 20.3046L83.203 9.82245V18.0224C83.203 19.5439 81.7846 20.7405 80.1721 20.4076C79.0163 20.1699 78.2242 19.114 78.2242 17.957V1.17085C78.2242 0.582453 78.9173 0.255566 79.3861 0.620094L92.8636 11.1023V2.97368C92.8636 1.8167 93.6577 0.762736 94.8115 0.523019H94.8095ZM59.7214 0C67.9716 0 74.6599 4.6834 74.6599 10.4604C74.6599 16.2374 67.9716 20.9208 59.7214 20.9208C51.4713 20.9208 44.783 16.2374 44.783 10.4604C44.783 4.6834 51.4713 0 59.7214 0ZM59.7214 4.88151C54.0213 4.88151 49.7618 7.82745 49.7618 10.4604C49.7618 13.0933 54.0213 16.0392 59.7214 16.0392C65.4216 16.0392 69.6811 13.0953 69.6811 10.4604C69.6811 7.82547 65.4216 4.88151 59.7214 4.88151Z" fill="#005BFF"/>
</g>
<defs>
<clipPath id="clip0_0_4">
<rect width="98" height="21" fill="white"/>
</clipPath>
</defs>
</svg>
